<svg width="34" height="37" viewBox="0 0 34 37" fill="none" xmlns="http://www.w3.org/2000/svg">
<g clip-path="url(#clip0)">
<path d="M29.1161 3.90755L25.9419 7.27963L27.0091 8.41335L30.1833 5.04127L29.1161 3.90755Z" fill="white"/>
<path d="M4.68146 3.88295L3.61426 5.01666L6.7885 8.38874L7.8557 7.25503L4.68146 3.88295Z" fill="white"/>
<path d="M17.2934 0H15.7842V4.76889H17.2934V0Z" fill="white"/>
<path d="M4.52279 15.9511H0.0336914V17.5544H4.52279V15.9511Z" fill="white"/>
<path d="M33.0443 15.9511H28.5552V17.5544H33.0443V15.9511Z" fill="white"/>
<path d="M16.5194 6.37222C11.0241 6.37222 6.57373 11.1 6.57373 16.9378V17.2667C6.57373 19.8567 7.9669 22.57 9.16657 24.9956C10.134 26.9278 11.0628 28.7778 11.0628 30.0522V31.1211C11.0628 34.3689 13.5396 37.0411 16.5581 37.0411C19.6153 37 22.0921 34.3278 22.0921 31.08L21.976 29.9289C21.8599 28.5722 22.8274 26.6811 23.9109 24.6256C25.1493 22.2411 26.4264 19.7744 26.5038 17.2667V16.8967C26.4651 11.1 22.0147 6.37222 16.5194 6.37222ZM16.5968 35.3967C14.391 35.3967 12.5721 33.4644 12.5721 31.08V30.0111C12.5721 29.6 12.4947 29.1478 12.3786 28.6956H20.5441C20.4667 29.1889 20.428 29.6411 20.4667 30.0933L20.5828 31.1211C20.5828 33.4644 18.764 35.3967 16.5968 35.3967ZM22.5952 23.8444C22.0147 24.9544 21.4729 26.0644 21.0472 27.0922H11.8755C11.4885 26.1467 11.0241 25.2011 10.521 24.1733C9.32137 21.83 8.12169 19.4044 8.12169 17.2256V16.8967C8.12169 11.9633 11.9142 7.93444 16.5581 7.93444C21.202 7.93444 24.9945 11.9633 24.9945 16.8967V17.2256C24.9171 19.3222 23.7561 21.6244 22.5952 23.8444Z" fill="white"/>
</g>
<defs>
<clipPath id="clip0">
<rect width="33.0103" height="37" fill="white" transform="translate(0.0336914)"/>
</clipPath>
</defs>
</svg>
